# xmcd
#
# Track frame offsets:
#	150
#	11912
#	23062
#	45095
#	67812
#	83060
#	113062
#	134807
#	147742
#
# Disc length: 2227 seconds
#
# Revision: 1
# Processed by: cddbd v1.5PL3 Copyright (c) Steve Scherf et al.
# Submitted via: audiograbber 1.80
#
DISCID=7508b109
DTITLE=Die Paradiesvögel - Super-Stimmungs-Tanzparty mit den Paradiesvögeln
DYEAR=1900
DGENRE=
TTITLE0=Nonstop Nonsens I
TTITLE1=Eviva ! Marsch, marsch
TTITLE2=Stimmung im Dreivierteltakt I
TTITLE3=Nonstop Nonsens II
TTITLE4=Träumereien im Walzertakt
TTITLE5=Im Polka-Rhythmus
TTITLE6=Stimmung im Dreivierteltakt II
TTITLE7=Auf geht's zur "Polonäse"
TTITLE8=Tango ohne Ende
EXTD=
EXTT0=
EXTT1=
EXTT2=
EXTT3=
EXTT4=
EXTT5=
EXTT6=
EXTT7=
EXTT8=
PLAYORDER=
